<svg width="100" height="100" viewBox="0 0 100 100" fill="none" xmlns="http://www.w3.org/2000/svg">
<path d="M32.5071 31.5666L99.4514 47.9965C98.5304 21.3383 76.6239 0 49.7404 0C22.8569 0 0 22.269 0 49.7404C0 77.2117 22.0143 99.226 49.2799 99.4709L32.5071 31.5666Z" fill="url(#paint0_linear_2014_9)"/>
<path d="M97.6392 67.7966L79.4751 78.5442L68.7276 96.7082C66.6506 100.216 61.4287 99.7061 60.0669 95.8656L39.9141 38.9831L96.7966 59.1359C100.637 60.4977 101.147 65.7196 97.6392 67.7966Z" fill="url(#paint1_linear_2014_9)"/>
<path style="mix-blend-mode:multiply" d="M39.9141 38.9831L79.4751 78.5442L97.6392 67.7966C101.147 65.7196 100.637 60.4977 96.7966 59.1359L39.9141 38.9831Z" fill="url(#paint2_linear_2014_9)"/>
<path style="mix-blend-mode:multiply" d="M49.7406 0C48.1632 0 46.5957 0.0783776 45.0575 0.225336C25.7962 6.35838 32.5073 31.5666 32.5073 31.5666L99.4516 47.9965C98.5306 21.3383 76.6241 0 49.7406 0Z" fill="url(#paint3_linear_2014_9)"/>
<defs>
<linearGradient id="paint0_linear_2014_9" x1="87.9886" y1="82.0221" x2="8.10228" y2="14.6076" gradientUnits="userSpaceOnUse">
<stop stop-color="#CFCFCF"/>
<stop offset="0.48" stop-color="#EBEBEB"/>
<stop offset="1" stop-color="white"/>
</linearGradient>
<linearGradient id="paint1_linear_2014_9" x1="69.9621" y1="99.0693" x2="69.9621" y2="38.9831" gradientUnits="userSpaceOnUse">
<stop stop-color="#D9D9D9"/>
<stop offset="0.598958" stop-color="#E4E4E4"/>
<stop offset="1" stop-color="white"/>
</linearGradient>
<linearGradient id="paint2_linear_2014_9" x1="59.097" y1="72.5973" x2="70.1874" y2="51.4941" gradientUnits="userSpaceOnUse">
<stop stop-color="#EDEDED"/>
<stop offset="1" stop-color="white"/>
</linearGradient>
<linearGradient id="paint3_linear_2014_9" x1="28.4513" y1="27.0795" x2="73.2147" y2="24.0325" gradientUnits="userSpaceOnUse">
<stop stop-color="#EDEDED"/>
<stop offset="1" stop-color="white"/>
</linearGradient>
</defs>
</svg>
